<?xml version="1.0" standalone="no"?>
<!DOCTYPE svg PUBLIC "-//W3C//DTD SVG 20010904//EN"
 "http://www.w3.org/TR/2001/REC-SVG-20010904/DTD/svg10.dtd">
<svg version="1.0" xmlns="http://www.w3.org/2000/svg"
 width="1366.000000pt" height="768.000000pt" viewBox="0 0 1366.000000 768.000000"
 preserveAspectRatio="xMidYMid meet">

<g transform="translate(0.000000,768.000000) scale(0.100000,-0.100000)"
fill="#ff0000" stroke="none">
<path d="M4695 7674 c-146 -8 -375 -37 -512 -65 -790 -163 -1336 -597 -1665
-1324 -52 -115 -118 -278 -118 -292 0 -10 855 -23 1565 -23 l410 0 114 341
113 340 841 -6 c463 -3 875 -8 916 -11 144 -10 298 -74 386 -160 100 -97 109
-176 42 -371 l-45 -130 622 -6 c341 -4 783 -7 981 -7 l361 0 88 266 c106 321
119 395 94 539 -17 101 -66 221 -125 304 -223 314 -734 539 -1343 590 -109 10
-2575 23 -2725 15z"/>
<path d="M11450 7544 c-246 -248 -642 -474 -1090 -623 -346 -116 -699 -177
-1127 -197 l-143 -7 -29 -96 c-17 -53 -68 -221 -115 -375 -48 -153 -86 -279
-86 -281 0 -1 775 -5 1722 -9 948 -4 1724 -9 1727 -11 2 -2 -36 -122 -85 -266
l-89 -262 -829 4 -829 4 -59 -175 c-32 -96 -58 -178 -58 -182 0 -5 263 -8 584
-8 l585 0 -42 -122 -42 -123 -584 0 -584 0 -14 -40 c-22 -62 -223 -677 -223
-681 0 -2 365 -4 810 -4 609 0 810 -3 810 -12 0 -6 -8 -36 -17 -65 l-17 -55
-815 3 -815 3 -238 -725 c-131 -398 -238 -725 -238 -726 0 -2 133 -3 295 -3
162 0 295 -4 295 -8 0 -4 -17 -59 -38 -122 l-39 -115 -298 -5 -298 -5 -34
-100 c-137 -405 -295 -907 -313 -995 -74 -357 -21 -663 149 -864 66 -78 137
-130 256 -187 287 -138 685 -141 1131 -7 l100 30 73 222 c39 121 198 601 352
1066 622 1873 883 2662 1449 4370 325 982 595 1797 600 1813 l9 27 -837 0
-837 0 -85 -86z"/>
<path d="M2216 5441 c-11 -17 -116 -333 -116 -348 0 -11 190 -13 988 -13 l987
0 62 180 61 180 -642 0 c-354 0 -798 3 -988 7 -264 5 -347 3 -352 -6z"/>
<path d="M6495 5268 c-33 -95 -61 -178 -63 -185 -3 -11 189 -13 986 -13 l990
0 60 180 60 179 -176 3 c-98 2 -541 4 -987 6 l-810 3 -60 -173z"/>
<path d="M1894 4489 c-65 -195 -120 -360 -122 -367 -3 -10 197 -12 989 -10
l992 3 118 354 c65 195 118 356 116 357 -1 1 -446 6 -988 10 l-986 7 -119
-354z"/>
<path d="M6295 4694 c-60 -175 -95 -253 -137 -305 -82 -102 -273 -207 -468
-258 l-115 -30 1242 -1 1243 0 38 78 c37 73 229 629 220 637 -2 2 -447 7 -989
11 l-986 7 -48 -139z"/>
<path d="M1719 3964 c-12 -31 -479 -1426 -479 -1431 0 -2 447 -3 993 -3 l994
0 89 279 89 280 1255 4 c1332 4 1300 3 1610 52 261 42 630 149 878 256 298
127 607 333 762 507 l51 57 -448 5 c-246 4 -1433 7 -2638 8 -1204 1 -2405 5
-2667 9 l-477 6 -12 -29z"/>
<path d="M1153 2274 c-17 -31 -705 -2105 -701 -2109 7 -7 2018 -18 2018 -11 0
3 88 282 196 619 107 336 260 813 338 1060 l143 447 -821 0 c-452 0 -898 3
-992 7 -162 6 -172 5 -181 -13z"/>
</g>
</svg>
